<svg width="30" height="30" viewBox="0 0 30 30" fill="none" xmlns="http://www.w3.org/2000/svg">
<path d="M5.76889 11.2118C5.77034 11.601 5.44401 11.9177 5.03997 11.9191C4.63593 11.9206 4.30714 11.6061 4.30557 11.2168C4.30075 9.92094 3.94929 9.10522 3.40839 8.60193C2.86148 8.09305 1.99833 7.78894 0.721279 7.77148C0.319259 7.76598 -0.00283506 7.44903 1.88191e-05 7.06173C0.0028727 6.67443 0.329604 6.36191 0.731665 6.36191C2.15022 6.36191 2.99284 6.00095 3.49612 5.47666C4.01062 4.94069 4.29447 4.10646 4.3056 2.91282C4.30915 2.53169 4.6266 2.22232 5.02218 2.21448C5.41776 2.20664 5.74815 2.50316 5.76798 2.88384C5.83367 4.14525 6.18179 4.99185 6.72243 5.52282C7.25411 6.04498 8.07922 6.36652 9.34003 6.36192C9.7416 6.36046 10.0694 6.67105 10.0744 7.05786C10.0795 7.44467 9.75993 7.76312 9.35845 7.77139C7.97506 7.7999 7.1123 8.15226 6.58939 8.67543C6.06488 9.2002 5.76406 10.0152 5.76889 11.2118Z" fill="#1E293A"/>
<path d="M0.0577869 15.1835C-0.278762 12.9872 0.876752 11.222 2.94933 10.414L3.35557 11.9311C3.81984 13.6648 6.37578 13.6648 6.84006 11.9311L7.26329 10.3506C7.42686 9.73977 7.92201 9.26278 8.5561 9.10521L10.0285 8.73933C10.0578 8.73461 10.0871 8.72844 10.1164 8.72077C10.1379 8.71514 10.1589 8.70881 10.1796 8.70179L10.1968 8.69751C11.9966 8.25027 11.9966 5.78812 10.1968 5.34088L9.2131 5.09644C9.07748 4.76334 9.06292 4.41343 9.27448 4.1064C10.428 2.43233 12.6893 2.99058 13.93 3.6509V29.3902C12.8707 30.1316 11.7795 30.2335 10.7729 29.4932C10.2371 29.0991 10.4389 28.3133 10.3273 27.6728C10.1877 26.8721 9.09585 26.3698 8.54835 26.9872C8.44179 27.1073 8.33865 27.2373 8.23566 27.3671C7.80908 27.9047 7.38518 28.4389 6.73268 28.2563C4.67441 27.6804 3.50244 25.6712 4.24224 23.9304C2.77939 22.7867 2.57359 21.4163 2.75692 20.3987C2.9945 19.7395 3.41888 19.2236 3.90795 18.8696C4.96485 18.1046 6.14809 18.1508 6.80723 18.7843C7.2119 19.1733 7.86434 19.1697 8.26451 18.7764C8.66467 18.3831 8.66102 17.749 8.25634 17.36C6.65594 15.8219 4.27935 16.1032 2.67699 17.263C2.09985 17.6808 1.24579 17.7348 0.854874 17.1502C0.471483 16.5768 0.169853 15.9148 0.0577869 15.1835Z" fill="#1E293A"/>
<path d="M16.0336 3.6509V29.3902C17.095 30.1313 18.1886 30.2334 19.1973 29.494C19.7348 29.1 19.532 28.3119 19.6456 27.6706C19.7872 26.8712 20.8799 26.3706 21.4283 26.9869C21.5357 27.1076 21.6396 27.2384 21.7434 27.3689C22.17 27.9056 22.5937 28.4386 23.2457 28.2572C25.3109 27.6823 26.4873 25.672 25.7453 23.9304C27.2118 22.7867 27.4181 21.4163 27.2343 20.3987C26.9961 19.7395 26.5707 19.2236 26.0804 18.8696C25.0209 18.1046 23.8347 18.1508 23.174 18.7843C22.7683 19.1733 22.1142 19.1697 21.7131 18.7764C21.3119 18.3831 21.3156 17.749 21.7213 17.36C23.3256 15.8219 25.7081 16.1032 27.3144 17.263C27.8933 17.681 28.7489 17.7353 29.1413 17.1499C29.5255 16.5766 29.8278 15.9146 29.9401 15.1835C30.3424 12.565 28.6185 10.5593 25.7453 10.0579C26.0545 8.77365 25.4841 7.31336 24.3174 6.55734C23.9905 6.42035 23.6547 6.34896 23.332 6.33767C22.2967 6.30146 21.3078 6.86749 20.958 8.1096C20.8277 8.57214 20.3346 8.84577 19.8566 8.72077C19.3786 8.59576 19.0967 8.11946 19.2269 7.65692C19.4357 6.91553 19.7984 6.30352 20.2627 5.82698C20.7326 5.34474 21.0804 4.65556 20.6997 4.10513C19.5431 2.43262 17.277 2.99075 16.0336 3.6509Z" fill="#1E293A"/>
<path d="M26.6282 6.49971C26.8988 6.49873 27.1173 6.28664 27.1164 6.02597C27.1131 5.22454 27.3146 4.67873 27.6659 4.32727C28.0161 3.97688 28.5939 3.74089 29.5205 3.72179C29.7893 3.71625 30.0033 3.50298 30 3.24391C29.9966 2.98485 29.7771 2.77683 29.5081 2.77781C28.6637 2.78089 28.1111 2.56554 27.755 2.21583C27.3929 1.86022 27.1598 1.29322 27.1158 0.448395C27.1025 0.193444 26.8812 -0.00514915 26.6163 0.000101763C26.3513 0.00535405 26.1387 0.212547 26.1363 0.467809C26.1289 1.26724 25.9388 1.82596 25.5942 2.18492C25.2571 2.53606 24.6928 2.77781 23.7427 2.77781C23.4735 2.77781 23.2546 2.98712 23.2527 3.24651C23.2508 3.50589 23.4665 3.71817 23.7358 3.72185C24.5911 3.73355 25.1692 3.93722 25.5355 4.27804C25.8977 4.61512 26.1331 5.16144 26.1363 6.02936C26.1374 6.29003 26.3576 6.50068 26.6282 6.49971Z" fill="#1E293A"/>
</svg>
