<svg width="30" height="31" viewBox="0 0 30 31" fill="none" xmlns="http://www.w3.org/2000/svg">
<path fill-rule="evenodd" clip-rule="evenodd" d="M0.808716 12.7192C0.808716 6.22812 6.18345 0.970581 12.8079 0.970581C19.3938 0.970581 24.7444 6.16708 24.8065 12.606L24.8084 12.8012L21.4209 11.2805C20.5466 10.8879 19.5656 10.829 18.6593 11.1038L18.6277 11.1134L18.5955 11.1061C18.2879 11.0365 17.9663 10.9721 17.6318 10.9134C17.6417 11.0873 17.6501 11.2624 17.6572 11.4386L17.6605 11.5223L15.0583 12.7165L15.0571 12.523C15.0527 11.8598 15.0265 11.2151 14.981 10.5948C14.2841 10.5457 13.5571 10.5195 12.8079 10.5195C12.0587 10.5195 11.3317 10.5457 10.6348 10.5948C10.5847 11.2761 10.558 11.9868 10.558 12.7192C10.558 13.3873 10.5803 14.0375 10.6222 14.6637L10.6279 14.7497L8.65022 15.6573C8.03567 15.8885 7.57137 16.352 7.29775 16.9246L7.25619 17.0116L7.16149 16.9935C6.31917 16.8324 5.53827 16.6353 4.83694 16.4065C4.58779 16.3252 4.3448 16.2386 4.10966 16.1466C5.07809 18.4981 7.01381 20.3675 9.43541 21.2816L9.44422 21.2849L10.5961 21.9312V24.2696L10.4471 24.2405C4.95253 23.1671 0.808716 18.4185 0.808716 12.7192ZM12.8079 3.54531C12.7991 3.54536 12.7811 3.54906 12.7518 3.56611C12.7231 3.58275 12.6911 3.60794 12.6571 3.64004C12.5888 3.70458 12.5255 3.78426 12.4768 3.84582L12.4517 3.87732C12.1554 4.24545 11.8305 4.8584 11.5338 5.72984C11.3106 6.38522 11.1163 7.14775 10.961 7.99458C11.5638 7.96171 12.1808 7.94475 12.8079 7.94475C13.4349 7.94475 14.0519 7.96171 14.6547 7.99458C14.4995 7.14775 14.3051 6.38522 14.082 5.72984C13.7852 4.8584 13.4609 4.24603 13.1645 3.8779L13.1394 3.84631C13.0908 3.78489 13.027 3.70456 12.9583 3.63975C12.9242 3.6075 12.8921 3.58226 12.8635 3.56568C12.8341 3.54866 12.8161 3.54528 12.8079 3.54531ZM16.3077 4.20596C16.4011 4.43497 16.489 4.67157 16.5716 4.91411C16.9037 5.88933 17.1704 7.02186 17.3592 8.26096C18.6253 8.44572 19.7825 8.70682 20.7788 9.03191C21.028 9.11321 21.271 9.19976 21.5061 9.29178C20.5547 6.98168 18.6697 5.13681 16.3077 4.20596ZM4.10966 9.29178C4.34479 9.19976 4.58779 9.11321 4.83694 9.03191C5.83324 8.70682 6.99041 8.44572 8.2566 8.26096C8.44538 7.02186 8.7121 5.88933 9.04418 4.91411C9.12677 4.67157 9.21467 4.43497 9.30809 4.20596C6.94604 5.13681 5.06106 6.98168 4.10966 9.29178ZM7.98398 10.9134C7.11702 11.0655 6.33636 11.2561 5.66548 11.475C4.77477 11.7656 4.14868 12.0834 3.77228 12.3738C3.65853 12.4615 3.56938 12.533 3.50838 12.5973C3.44492 12.6642 3.43352 12.7013 3.43355 12.719C3.43358 12.7364 3.44498 12.7736 3.50828 12.8405C3.56907 12.9048 3.65817 12.9766 3.77228 13.0646C4.14868 13.355 4.77477 13.6728 5.66548 13.9634C6.33636 14.1823 7.11702 14.3729 7.98398 14.525C7.95049 13.9356 7.93321 13.3323 7.93321 12.7192C7.93321 12.1061 7.95049 11.5028 7.98398 10.9134Z" fill="#1E293A"/>
<path d="M18.5324 13.5446C19.2783 13.1803 20.2409 13.1508 21.0921 13.5434C21.9103 13.9208 28.9609 17.0906 29.3249 17.2393C29.7438 17.4104 30 17.8367 30 18.2836C30 18.7339 29.7378 19.1428 29.3288 19.3263L27.7493 20.0354L27.7484 20.0332L20.9499 23.0686C20.2197 23.3946 19.3853 23.3944 18.6553 23.068L12.6415 20.3794L10.2983 19.3263C9.8893 19.1428 9.62708 18.7339 9.62708 18.2836C9.62708 17.8356 9.87827 17.4209 10.3003 17.2401C10.6727 17.0805 17.8236 13.8908 18.5324 13.5446Z" fill="#1E293A"/>
<path d="M12.6406 22.4328C12.6405 22.6397 12.6405 22.853 12.6405 23.0684C12.6404 24.5024 12.6414 26.0354 12.6455 26.4272C12.65 26.8549 12.8256 27.1916 13.0556 27.4663C13.256 27.7058 13.5033 27.904 13.7172 28.0755L13.8003 28.1423C15.4614 29.4831 17.721 30.1077 19.8135 30.1077C21.5063 30.1077 23.0534 29.6818 24.2573 29.1096C24.8603 28.8232 25.3937 28.4919 25.8268 28.1423C26.0633 27.9511 26.3493 27.7052 26.5765 27.4197C26.803 27.1351 26.9816 26.7981 26.9816 26.4258L26.9796 23.1972L26.9809 22.4293L21.7143 24.7807C20.4974 25.3241 19.1067 25.3237 17.89 24.7798L12.6406 22.4328Z" fill="#1E293A"/>
</svg>
