<svg width="107" height="19" viewBox="0 0 107 19" fill="none" xmlns="http://www.w3.org/2000/svg">
<path d="M12.618 14.48C12.618 15.668 12.222 16.5553 11.43 17.142C11.0487 17.4207 10.6527 17.6407 10.242 17.802C9.846 17.9487 9.45733 18.022 9.076 18.022H4.28C3.89867 18.022 3.50267 17.9487 3.092 17.802C2.696 17.6407 2.30733 17.4207 1.926 17.142C1.54467 16.8487 1.25133 16.4893 1.046 16.064C0.840667 15.624 0.738 15.096 0.738 14.48V4.03C0.738 3.44333 0.840667 2.93 1.046 2.49C1.25133 2.03533 1.54467 1.66867 1.926 1.39H1.904C2.28533 1.14067 2.68133 0.935333 3.092 0.773999C3.50267 0.612666 3.89867 0.531999 4.28 0.531999H9.076C9.45733 0.531999 9.85333 0.612666 10.264 0.773999C10.6747 0.935333 11.0707 1.14067 11.452 1.39H11.43C11.8113 1.66867 12.1047 2.03533 12.31 2.49C12.5153 2.93 12.618 3.44333 12.618 4.03V5.548C12.618 6.252 12.178 6.604 11.298 6.604C10.4327 6.604 10 6.252 10 5.548V4.228C10 3.86133 9.89 3.524 9.67 3.216C9.45 2.908 9.06867 2.754 8.526 2.754H4.83C4.28733 2.754 3.906 2.908 3.686 3.216C3.466 3.524 3.356 3.86133 3.356 4.228V14.304C3.356 14.6853 3.466 15.03 3.686 15.338C3.906 15.646 4.28733 15.8 4.83 15.8H8.526C9.06867 15.8 9.45 15.646 9.67 15.338C9.89 15.03 10 14.6853 10 14.304V13.028C10 12.3387 10.4327 11.994 11.298 11.994C12.178 11.994 12.618 12.3387 12.618 13.028V14.48ZM24.1151 0.531999C24.4964 0.531999 24.8924 0.612666 25.3031 0.773999C25.7137 0.935333 26.1097 1.14067 26.4911 1.39H26.4691C26.8504 1.66867 27.1437 2.03533 27.3491 2.49C27.5544 2.93 27.6571 3.44333 27.6571 4.03V14.48C27.6571 15.668 27.2611 16.5553 26.4691 17.142C26.0877 17.4207 25.6917 17.6407 25.2811 17.802C24.8851 17.9487 24.4964 18.022 24.1151 18.022H19.3191C18.9377 18.022 18.5417 17.9487 18.1311 17.802C17.7351 17.6407 17.3464 17.4207 16.9651 17.142C16.5837 16.8487 16.2904 16.4893 16.0851 16.064C15.8797 15.624 15.7771 15.096 15.7771 14.48V4.03C15.7771 3.44333 15.8797 2.93 16.0851 2.49C16.2904 2.03533 16.5837 1.66867 16.9651 1.39H16.9431C17.3244 1.14067 17.7204 0.935333 18.1311 0.773999C18.5417 0.612666 18.9377 0.531999 19.3191 0.531999H24.1151ZM23.5651 15.8C24.1077 15.8 24.4891 15.646 24.7091 15.338C24.9291 15.03 25.0391 14.6853 25.0391 14.304V4.228C25.0391 3.86133 24.9291 3.524 24.7091 3.216C24.4891 2.908 24.1077 2.754 23.5651 2.754H19.8691C19.3264 2.754 18.9451 2.908 18.7251 3.216C18.5051 3.524 18.3951 3.86133 18.3951 4.228V14.304C18.3951 14.6853 18.5051 15.03 18.7251 15.338C18.9451 15.646 19.3264 15.8 19.8691 15.8H23.5651ZM44.4745 0.421999C44.9438 0.421999 45.4572 0.531999 46.0145 0.751999C46.5278 0.957332 46.7845 1.346 46.7845 1.918V17.076C46.7845 17.78 46.3518 18.132 45.4865 18.132C44.6212 18.132 44.1885 17.78 44.1885 17.076V5.768L43.5505 5.702L42.6705 8.562L40.0305 17.362C39.8692 17.8753 39.4732 18.1247 38.8425 18.11C38.5638 18.0953 38.3218 18.022 38.1165 17.89C37.9112 17.758 37.7718 17.5673 37.6985 17.318L36.1145 12.192C35.7918 11.18 35.4692 10.1533 35.1465 9.112C34.8238 8.056 34.4718 6.89 34.0905 5.614L33.4525 5.702V17.076C33.4525 17.78 33.0198 18.132 32.1545 18.132C31.2892 18.132 30.8565 17.78 30.8565 17.076V1.918C30.8565 1.36067 31.1132 0.971999 31.6265 0.751999C32.1692 0.531999 32.6898 0.429333 33.1885 0.443999C33.4085 0.443999 33.6358 0.473333 33.8705 0.531999C34.1052 0.590666 34.3252 0.678666 34.5305 0.795999C34.7358 0.898666 34.9192 1.038 35.0805 1.214C35.2418 1.37533 35.3665 1.566 35.4545 1.786L38.9085 13.556C39.1578 12.6907 39.4218 11.752 39.7005 10.74C39.9792 9.728 40.2652 8.70133 40.5585 7.66C40.8518 6.61867 41.1378 5.592 41.4165 4.58C41.7098 3.55333 41.9812 2.6 42.2305 1.72C42.3185 1.51467 42.4432 1.33133 42.6045 1.17C42.7658 1.00867 42.9492 0.876666 43.1545 0.773999C43.3598 0.656666 43.5725 0.568666 43.7925 0.51C44.0272 0.451333 44.2545 0.421999 44.4745 0.421999ZM54.6688 11.532C54.4194 11.532 54.2214 11.4367 54.0748 11.246C53.9428 11.0407 53.8768 10.7693 53.8768 10.432C53.8768 9.684 54.1848 9.31 54.8008 9.31H57.1328C57.6754 9.31 58.0568 9.156 58.2768 8.848C58.5114 8.54 58.6288 8.20267 58.6288 7.836V4.228C58.6288 3.86133 58.5114 3.524 58.2768 3.216C58.0568 2.908 57.6754 2.754 57.1328 2.754H52.5128V17.12C52.5128 17.824 52.0728 18.176 51.1928 18.176C50.3421 18.176 49.9168 17.824 49.9168 17.12V1.852C49.9168 1.324 50.0488 0.971999 50.3128 0.795999C50.5768 0.619999 50.8994 0.531999 51.2808 0.531999H57.7048C58.0714 0.531999 58.4601 0.612666 58.8708 0.773999C59.2814 0.935333 59.6774 1.14067 60.0588 1.39H60.0368C60.4181 1.66867 60.7114 2.03533 60.9168 2.49C61.1221 2.93 61.2248 3.44333 61.2248 4.03V8.012C61.2248 9.2 60.8288 10.0873 60.0368 10.674C59.6554 10.9527 59.2668 11.1653 58.8708 11.312C58.4748 11.4587 58.0861 11.532 57.7048 11.532H54.6688ZM70.3546 2.688L65.5366 17.472V17.45C65.4486 17.67 65.3239 17.8533 65.1626 18C65.0159 18.132 64.8326 18.198 64.6126 18.198C64.4953 18.198 64.3779 18.1833 64.2606 18.154C64.1579 18.1393 64.0479 18.1173 63.9306 18.088H63.9526C63.1166 17.824 62.8086 17.3547 63.0286 16.68L68.0446 1.434C68.1179 1.19933 68.2426 1.00133 68.4186 0.839999C68.6093 0.678666 68.8293 0.583333 69.0786 0.553999C69.3279 0.509999 69.5699 0.480665 69.8046 0.465999C70.0393 0.436666 70.2226 0.421999 70.3546 0.421999C70.4866 0.421999 70.6699 0.436666 70.9046 0.465999C71.1393 0.480665 71.3813 0.502666 71.6306 0.531999C71.8359 0.561332 72.0339 0.671332 72.2246 0.861999C72.4299 1.05267 72.5839 1.24333 72.6866 1.434C73.5079 3.95667 74.3366 6.50133 75.1726 9.068C76.0233 11.62 76.8593 14.1573 77.6806 16.68C77.8859 17.3547 77.5779 17.824 76.7566 18.088C76.6393 18.1173 76.5293 18.1393 76.4266 18.154C76.3386 18.1833 76.2359 18.198 76.1186 18.198C75.9133 18.198 75.7226 18.132 75.5466 18C75.3853 17.8533 75.2679 17.67 75.1946 17.45V17.472L70.3546 2.688ZM72.0046 12.72C72.0046 13.1893 71.8359 13.5927 71.4986 13.93C71.1759 14.2527 70.7799 14.414 70.3106 14.414C69.8413 14.414 69.4453 14.2527 69.1226 13.93C68.7999 13.5927 68.6386 13.1893 68.6386 12.72C68.6386 12.2507 68.7999 11.8547 69.1226 11.532C69.4453 11.1947 69.8413 11.026 70.3106 11.026C70.7799 11.026 71.1759 11.1947 71.4986 11.532C71.8359 11.8547 72.0046 12.2507 72.0046 12.72ZM87.9886 7.946C88.37 7.946 88.766 8.02667 89.1766 8.188C89.5873 8.34933 89.9833 8.562 90.3646 8.826H90.3426C90.724 9.09 91.0173 9.44933 91.2226 9.904C91.428 10.3587 91.5306 10.8793 91.5306 11.466V14.48C91.5306 15.668 91.1346 16.5553 90.3426 17.142C89.9613 17.4207 89.5653 17.6407 89.1546 17.802C88.7586 17.9487 88.37 18.022 87.9886 18.022H83.1926C82.8113 18.022 82.4153 17.9487 82.0046 17.802C81.6086 17.6407 81.22 17.4207 80.8386 17.142C80.0466 16.5553 79.6506 15.668 79.6506 14.48V13.028C79.6506 12.3387 80.0833 11.994 80.9486 11.994C81.8286 11.994 82.2686 12.3387 82.2686 13.028V14.304C82.2686 14.6853 82.3786 15.03 82.5986 15.338C82.8186 15.646 83.2 15.8 83.7426 15.8H87.4386C87.9813 15.8 88.3626 15.646 88.5826 15.338C88.8026 15.03 88.9126 14.6853 88.9126 14.304V11.642C88.9126 11.2753 88.8026 10.938 88.5826 10.63C88.3626 10.3073 87.9813 10.146 87.4386 10.146H83.1926C82.43 10.146 81.6453 9.86733 80.8386 9.31C80.0466 8.694 79.6506 7.80667 79.6506 6.648V4.03C79.6506 3.44333 79.7533 2.93 79.9586 2.49C80.164 2.03533 80.4573 1.66867 80.8386 1.39H80.8166C81.198 1.14067 81.594 0.935333 82.0046 0.773999C82.4153 0.612666 82.8113 0.531999 83.1926 0.531999H87.9886C88.37 0.531999 88.766 0.612666 89.1766 0.773999C89.5873 0.935333 89.9833 1.14067 90.3646 1.39H90.3426C90.724 1.66867 91.0173 2.03533 91.2226 2.49C91.428 2.93 91.5306 3.44333 91.5306 4.03V5.328C91.5306 6.01733 91.0906 6.362 90.2106 6.362C89.3453 6.362 88.9126 6.01733 88.9126 5.328V4.228C88.9126 3.86133 88.8026 3.524 88.5826 3.216C88.3626 2.908 87.9813 2.754 87.4386 2.754H83.7426C83.2 2.754 82.8186 2.908 82.5986 3.216C82.3786 3.524 82.2686 3.86133 82.2686 4.228V6.472C82.2686 6.85333 82.3786 7.198 82.5986 7.506C82.8186 7.79933 83.2 7.946 83.7426 7.946H87.9886ZM103.328 7.946C103.71 7.946 104.106 8.02667 104.516 8.188C104.927 8.34933 105.323 8.562 105.704 8.826H105.682C106.064 9.09 106.357 9.44933 106.562 9.904C106.768 10.3587 106.87 10.8793 106.87 11.466V14.48C106.87 15.668 106.474 16.5553 105.682 17.142C105.301 17.4207 104.905 17.6407 104.494 17.802C104.098 17.9487 103.71 18.022 103.328 18.022H98.5325C98.1511 18.022 97.7551 17.9487 97.3445 17.802C96.9485 17.6407 96.5598 17.4207 96.1785 17.142C95.3865 16.5553 94.9905 15.668 94.9905 14.48V13.028C94.9905 12.3387 95.4231 11.994 96.2885 11.994C97.1685 11.994 97.6085 12.3387 97.6085 13.028V14.304C97.6085 14.6853 97.7185 15.03 97.9385 15.338C98.1585 15.646 98.5398 15.8 99.0825 15.8H102.778C103.321 15.8 103.702 15.646 103.922 15.338C104.142 15.03 104.252 14.6853 104.252 14.304V11.642C104.252 11.2753 104.142 10.938 103.922 10.63C103.702 10.3073 103.321 10.146 102.778 10.146H98.5325C97.7698 10.146 96.9851 9.86733 96.1785 9.31C95.3865 8.694 94.9905 7.80667 94.9905 6.648V4.03C94.9905 3.44333 95.0931 2.93 95.2985 2.49C95.5038 2.03533 95.7971 1.66867 96.1785 1.39H96.1565C96.5378 1.14067 96.9338 0.935333 97.3445 0.773999C97.7551 0.612666 98.1511 0.531999 98.5325 0.531999H103.328C103.71 0.531999 104.106 0.612666 104.516 0.773999C104.927 0.935333 105.323 1.14067 105.704 1.39H105.682C106.064 1.66867 106.357 2.03533 106.562 2.49C106.768 2.93 106.87 3.44333 106.87 4.03V5.328C106.87 6.01733 106.43 6.362 105.55 6.362C104.685 6.362 104.252 6.01733 104.252 5.328V4.228C104.252 3.86133 104.142 3.524 103.922 3.216C103.702 2.908 103.321 2.754 102.778 2.754H99.0825C98.5398 2.754 98.1585 2.908 97.9385 3.216C97.7185 3.524 97.6085 3.86133 97.6085 4.228V6.472C97.6085 6.85333 97.7185 7.198 97.9385 7.506C98.1585 7.79933 98.5398 7.946 99.0825 7.946H103.328Z" fill="url(#paint0_linear_12_245)"/>
<defs>
<linearGradient id="paint0_linear_12_245" x1="55" y1="-4" x2="55" y2="24" gradientUnits="userSpaceOnUse">
<stop stop-color="#9AF6E5"/>
<stop offset="1" stop-color="#15B9A8"/>
</linearGradient>
</defs>
</svg>
