<svg width="30" height="30" viewBox="0 0 30 30" fill="none" xmlns="http://www.w3.org/2000/svg">
<path d="M21 13.0001C21 12.1716 21.6716 11.5001 22.5 11.5001H25.5C26.3284 11.5001 27 12.1716 27 13.0001V28.5001C27 29.3285 26.3284 30.0001 25.5 30.0001H22.5C21.6716 30.0001 21 29.3285 21 28.5001V13.0001Z" fill="#1E293A"/>
<path d="M13.5 16.2501C12.6716 16.2501 12 16.9216 12 17.7501V28.5001C12 29.3285 12.6716 30.0001 13.5 30.0001H16.5C17.3284 30.0001 18 29.3285 18 28.5001V17.7501C18 16.9216 17.3284 16.2501 16.5 16.2501H13.5Z" fill="#1E293A"/>
<path d="M4.5 21.0001C3.67157 21.0001 3 21.6716 3 22.5001V28.5001C3 29.3285 3.67157 30.0001 4.5 30.0001H7.5C8.32843 30.0001 9 29.3285 9 28.5001V22.5001C9 21.6716 8.32843 21.0001 7.5 21.0001H4.5Z" fill="#1E293A"/>
<path fill-rule="evenodd" clip-rule="evenodd" d="M17.7438 1.95679C17.7438 1.26643 18.3034 0.706787 18.9938 0.706787H25.5347C26.2251 0.706787 26.7847 1.26643 26.7847 1.95679V7.72067C26.7847 8.41103 26.2251 8.97067 25.5347 8.97067C24.8444 8.97067 24.2847 8.41103 24.2847 7.72067V4.80095L14.7296 13.5718C14.4845 13.7968 14.1597 13.9148 13.8273 13.8996C13.4949 13.8845 13.1822 13.7374 12.9586 13.4909L10.401 10.6724L5.36288 15.8701C4.88239 16.3658 4.09103 16.3781 3.59533 15.8976C3.09963 15.4171 3.08729 14.6258 3.56778 14.1301L9.53356 7.97536C9.77397 7.72734 10.1063 7.58985 10.4517 7.59554C10.7971 7.60122 11.1247 7.74957 11.3568 8.00538L13.9652 10.8799L22.3245 3.20679H18.9938C18.3034 3.20679 17.7438 2.64714 17.7438 1.95679Z" fill="#1E293A"/>
</svg>
